<?xml version="1.0" encoding="utf-8"?>
<!-- Generator: Adobe Illustrator 17.1.0, SVG Export Plug-In . SVG Version: 6.00 Build 0)  -->
<!DOCTYPE svg PUBLIC "-//W3C//DTD SVG 1.1//EN" "http://www.w3.org/Graphics/SVG/1.1/DTD/svg11.dtd">
<svg version="1.1" id="图层_1" xmlns="http://www.w3.org/2000/svg" xmlns:xlink="http://www.w3.org/1999/xlink" x="0px" y="0px"
	 viewBox="0 0 300 97" enable-background="new 0 0 300 97" xml:space="preserve">
<g>
	<g>
		<polygon fill="#FFFFFF" points="169.24,53.734 182.815,35.458 185.593,35.458 172.018,53.734 		"/>
		<path fill="#FFFFFF" d="M262.583,48.296h30c3.663,0.059,4.247-1.352,4.247-3.261v-7.743h-2.92v6.264
			c0,1.36-0.531,1.97-1.594,1.834h-13.538V35.05h-2.92V45.39H263.38c-1.593,0.137-2.302-0.474-2.123-1.834v-6.467h-2.656v8.151
			C258.544,47.221,259.564,48.339,262.583,48.296z"/>
		<path fill="#FFFFFF" d="M258.055,53.323v2.775h17.485c-0.822,1.752-1.773,3.304-2.87,4.628h-10.352
			c-3.012,0-4.425,1.019-4.248,3.057v16.186h-8.76V58.81h7.609v-2.774h-7.609V39.658h6.613v-2.774h-1.835h-13.273h-1.621v2.774
			h7.196v16.378h-7.196v2.774h7.196v21.159h-9.135V67.146v-2.689v-0.085h-11.519v-4.665h8.176v-2.774h-46.733v2.774h35.778v4.665
			h-37.364v2.774h37.364v11.035c0,0-0.266,1.616-2.17,1.778h-11.593h-12.856v-5.94h13.605v-2.775h-13.605h-2.778v2.775v8.715h0.481
			h2.298h19.025c2.44-0.02,6.252,0,6.252,0c0.953-0.073,1.724-0.443,3.017-1.832c1.113-1.243,1.104-2.721,1.104-2.721V67.146h8.74
			v15.588h2.779v0.009h20.815h2.909h0.012V65.086c-0.177-1.085,0.44-1.63,1.859-1.63h5.955v19.266h2.656V63.456h11.209v16.583h2.654
			V63.456h8.056c2.124-0.133,3.094,0.545,2.92,2.038c0,0-0.009,14.437-0.007,14.465h-8.077v2.775h8.662c0,0,2.114-0.033,2.077-2.854
			V64.189c0-2.307-1.419-3.464-4.248-3.464h-18.583c0.641-0.863,1.581-2.412,2.814-4.628h21.079v-0.67V53.39v-0.067H258.055z"/>
		<path fill="#FFFFFF" d="M185.022,47.794l-9.632,15.502H164.1v1.16v1.614v13.889h-9.567V60.064h10.402V57.29h-10.402V39.454h10.47
			V36.68h-22.737v0.981c-0.005,0.014-0.005,0.067,0,0.084v1.71h9.612V57.29h-10.667v2.774h10.667v19.895h-15.65v2.775h1.805H164.1
			h0.521h1.815h0.442V66.07h6.788h2.778h0.163v-0.263l3.146-5.062v21.988h2.655V56.473l5.392-8.679H185.022z"/>
		<path fill="#FFFFFF" d="M225.967,35.506L225.967,35.506l-0.002,0c-0.255-0.032-0.526-0.048-0.814-0.048h-29.086v2.75h-0.022
			l0.022,0.013v0.011h0.018l20.732,12.395h-22.605c-0.604-0.19-0.65-1.249-0.65-1.797v-3.013v-2.774v-3.861
			c0-0.015,0.006-0.027,0.007-0.042v-3.535c-2.121,0.326-2.964,1.219-2.928,2.706v11.615c-0.169,2.306,1.259,3.451,4.242,3.46
			l0.009,0.016h30.022l0.01-0.015c2.617-0.025,3.946-1.101,3.946-3.257V38.514C228.712,36.733,227.743,35.73,225.967,35.506z
			 M225.498,50.627h-3.954l-20.735-12.395h23.667c0,0,1.375-0.256,1.472,0.819v3.991v2.774v3.284
			C225.948,49.376,225.991,50.41,225.498,50.627z"/>
		<path fill="#FFFFFF" d="M197.145,38.232"/>
		<path fill="#FFFFFF" d="M201.874,38.232"/>
		<path fill="#FFFFFF" d="M113.649,58.478h-9.064v-2.775h9.064V39.646h-9.064v-2.774h20.951v2.774h-9.233v16.057h9.233v2.775h-9.233
			v16.394l8.911-1.798c0,0,4.338-3.189,4.523-10.209c0.185-7.02,0.123-19.089,0.123-19.089l2.343-0.015
			c0,0,0.057,13.557,0.057,16.133c0,2.577-0.076,7.518-1.576,10.351c-1.059,2-2.223,3.971-4.455,5.166
			c-1.795,0.961-23.119,5.205-23.119,5.205v-2.775l10.536-2.372"/>
		<path fill="#FFFFFF" d="M117.429,83.355c-0.361-0.25-1.215-1.875,1.188-2.484c3.004-0.76,10.492-2.38,13.616-6.634
			c3.241-4.412,3.365-7.66,3.365-7.66l-0.034-30.707h2.928l0.034,30.784c0,0-0.54,4-2.158,6.769
			c-1.177,2.014-3.209,4.534-5.766,6.068c-5.339,3.204-9.79,3.769-11.74,4.031C118.863,83.522,117.907,83.686,117.429,83.355z"/>
	</g>
	<path fill="#FFFFFF" d="M11.184,55.071"/>
	<g>
		<g>
			<path fill="#FFFFFF" d="M56.519,17.122C55.383,7.02,62.653-0.201,78.638,0.004c0,0-21.256,0.359-18.025,17.101
				c3.021,15.657,22.855,23.766,27.609,45.374c4.945,22.476-14.933,31.651-24.983,33.07c-16.232,2.291-29.694-3.771-39.986-10.099
				c0,0,23.46,10.53,38.237,4.968c14.776-5.562,27.143-20.403,10.006-45.268C63.997,34.272,57.402,24.979,56.519,17.122z"/>
			<path fill="#FFFFFF" d="M23.252,85.451c0,0,9.398,4.513,17.583,2.614c8.186-1.9,11.63-6.103,13.557-11.954
				c1.927-5.85-2.041-15.402-8.161-18.535c-6.119-3.133-10.466-2.151-13.84,0.932c-3.617,3.305-3.533,9.441-1.682,11.57
				c1.852,2.128,3.641,2.174,5.773,1.526c2.132-0.649,4.587-4.273,2.672-7.205c-1.85-2.833-4.013-1.443-4.531-0.109
				c-0.907,2.337-0.015,3.62-0.015,3.62s-1.74-0.757-1.574-3.691c0.167-2.934,3.838-8.223,9.002-4.128
				c4.914,3.897,3.253,12.729-2.125,14.558c-6.419,2.183-14.212-0.071-12.891-11.183c1.347-11.327,18.061-16.545,27.751-6.737
				c9.69,9.808,6.002,22.605,3.544,25.592c-5.069,6.162-9.456,7.878-13.431,8.57c-3.975,0.692-6.049,0.811-6.049,0.811
				L23.252,85.451z"/>
		</g>
		<g>
			<path fill="#FFFFFF" d="M61.459,54.324c0,0-16.039-17.68-36.181,0.277c0,0-16.775,4.784-25.278,6.694
				C0,61.295,43.72,30.973,61.459,54.324z"/>
			<path fill="#FFFFFF" d="M61.858,51.132c0,0-11.602-19.229-36.582-9.334l-23.815,0.35C1.461,42.148,40.328,19.206,61.858,51.132z"
				/>
			<path fill="#FFFFFF" d="M60.752,45.212c0,0-9.644-18.281-25.898-15.394l-10.015-2.958C24.839,26.859,46.813,13.713,60.752,45.212
				z"/>
		</g>
	</g>
</g>
</svg>
